PathFileType	4	(X/Y/Z)	C:/Users/beibeiliu/ov580/test_trc/User2\sequence.34_training_dense_left.trc
DataRate	CameraRate	NumFrames	NumMarkers	Units	OrigDataRate	OrigDataStartFrame	OrigNumFrames
120	120	11	19	mm	120	245	326
Frame#	Time	ThumbCMC			ThumbMCP			ThumbIP			ThumbTip			IndexMCP			IndexPIP			IndexTip			MiddleMCP			MiddlePIP			MiddleTip			RingMCP			RingPIP			RingTip			PinkyMCP			PinkyPIP			PinkyTip			BackHand1			BackHand2			BackHand3	
		X0	Y0	Z0	X1	Y1	Z1	X2	Y2	Z2	X3	Y3	Z3	X4	Y4	Z4	X5	Y5	Z5	X6	Y6	Z6	X7	Y7	Z7	X8	Y8	Z8	X9	Y9	Z9	X10	Y10	Z10	X11	Y11	Z11	X12	Y12	Z12	X13	Y13	Z13	X14	Y14	Z14	X15	Y15	Z15	X16	Y16	Z16	X17	Y17	Z17	X18	Y18	Z18	
244	2.03333	-208.305	-24.0762	51.5306	-205.059	-14.4396	20.6213	-185.886	-16.4067	-8.29512	-160.127	-25.0569	-26.5288	-162.448	-52.5099	-11.2003	-137.506	-32.6469	-16.4504	-155.633	-12.9757	10.4616	-141.204	-59.6313	-5.63713	-120.489	-32.2915	0.460226	-145.169	-22.1736	31.4532	-126.305	-63.4677	10.9756	-114.918	-33.3039	14.9846	-138.532	-31.4527	42.6476	-117.495	-69.6871	32.4849	-104.557	-39.8067	30.4104	-129.526	-31.038	52.6457	-168.226	-81.2682	59.0773	-186.955	-78.0394	83.4184	-205.683	-59.8103	53.7847	
245	2.04167	-212.864	-25.2451	52.6704	-204.63	-19.2516	15.6333	-187.847	-18.1913	-10.8335	-163.93	-23.0744	-24.9628	-160.201	-53.2504	-12.1343	-140.277	-30.3934	-15.9501	-158.786	-13.2944	10.7906	-143.899	-59.8946	-3.56183	-122.637	-30.8459	-1.05183	-146.95	-22.2529	31.1992	-126.076	-61.17	9.65277	-114.695	-31.8197	15.5706	-137.804	-28.5503	40.5542	-115.493	-67.8023	34.7457	-107.687	-36.2767	28.1122	-131.703	-27.1096	50.694	-166.571	-81.3571	56.0684	-185.893	-76.7931	84.8845	-204.887	-63.3728	53.2722	
246	2.05	-214.062	-26.7104	48.7472	-204.377	-22.6348	15.6438	-188.45	-21.0645	-9.40016	-165.493	-25.1345	-26.4554	-159.869	-54.5045	-13.4758	-141.484	-29.7109	-17.0044	-158.31	-17.904	12.3663	-142.641	-60.0471	-4.90546	-126.04	-27.1114	-0.76531	-150.376	-19.1628	26.7495	-123.349	-63.2534	13.2389	-118.402	-29.7802	12.5016	-141.515	-29.6755	40.5824	-115.736	-64.0971	30.7179	-111.184	-31.6789	28.6094	-131.732	-26.9089	47.6775	-167.808	-81.2886	54.1968	-185.999	-76.091	87.1674	-201.98	-66.0758	50.6801	
247	2.05833	-212.233	-30.2034	49.866	-204.206	-23.5714	20.2395	-187.103	-26.8364	-12.5212	-167.828	-27.8882	-27.3339	-164.334	-56.4483	-15.5235	-143.126	-32.4342	-19.7103	-159.988	-16.2685	8.02449	-142.502	-60.086	-5.11007	-127.835	-28.5923	-3.76001	-154.188	-22.7337	28.2402	-124.66	-62.8338	12.2743	-115.466	-30.8363	15.235	-142.825	-30.143	40.6855	-115.04	-64.8588	32.7848	-111.861	-32.2753	27.5635	-136.018	-25.6548	47.2892	-163.852	-83.3158	57.6815	-184.166	-78.3416	86.1241	-202.387	-68.1641	56.4917	
248	2.06667	-214.659	-30.7581	48.6613	-207.076	-25.9429	18.8992	-190.221	-26.9709	-11.163	-167.167	-31.6449	-29.0633	-163.763	-59.2755	-11.3388	-143.775	-34.3707	-20.4006	-158.802	-19.5036	9.63555	-141.052	-62.759	-3.04419	-129.491	-27.1345	-4.12455	-152.329	-20.8863	25.9153	-126.335	-63.2067	11.1501	-118.521	-31.9018	10.4009	-142.827	-27.418	35.7516	-116.064	-65.6287	32.9801	-110.857	-33.1981	28.1084	-135.794	-27.087	51.7671	-165.449	-82.2003	56.2265	-185.593	-79.3618	86.0978	-201.236	-67.1171	56.0593	
249	2.075	-215.24	-33.6172	47.8954	-209.313	-28.9251	17.6045	-190.251	-31.8591	-14.5084	-169.85	-32.8553	-29.9739	-161.562	-60.7178	-13.8636	-143.901	-37.8572	-20.8104	-159.851	-19.7464	6.13797	-143.248	-63.5672	-2.55812	-127.013	-31.9373	-3.67917	-152.055	-24.9453	28.4164	-125.419	-64.1335	11.84	-118.056	-31.7485	12.169	-144.954	-31.6008	38.3388	-116.187	-66.4687	31.2198	-108.462	-34.6557	27.8863	-133.11	-26.7684	50.4001	-163.5	-85.791	60.1166	-184.483	-77.5788	87.2172	-204.803	-68.8514	55.9759	
250	2.08333	-213.406	-36.9129	50.5444	-211.99	-31.4792	16.3761	-192.384	-34.9049	-13.3777	-172.079	-36.3057	-26.2559	-166.231	-62.5769	-14.3518	-142.659	-40.7887	-19.6031	-162.931	-21.6064	10.3529	-140.198	-64.81	-5.10477	-130.16	-32.312	-5.19016	-151.687	-24.8563	26.1338	-127.876	-64.9295	11.5179	-115.998	-35.1725	13.3938	-142.692	-30.7456	36.3387	-118.506	-68.2608	33.3242	-109.887	-36.4745	27.5723	-132.81	-28.5114	48.0251	-168.048	-84.7786	59.4827	-185.516	-78.3153	88.2804	-202.504	-70.1154	57.5159	
251	2.09167	-219.303	-35.8555	51.2155	-215.791	-31.8625	18.8493	-195.393	-35.7123	-11.9313	-170.299	-41.323	-22.7954	-164.234	-63.9899	-13.3429	-145.409	-40.1641	-19.6357	-161.571	-22.647	5.65677	-144.363	-65.8026	-5.22261	-128.965	-35.7655	-5.49818	-153.086	-25.6416	24.4669	-125.692	-65.7864	9.97055	-119.049	-35.9215	9.68305	-143.828	-33.0165	37.4065	-120.252	-68.6378	34.5694	-110.815	-38.1071	25.9416	-137.778	-31.6921	48.1907	-168.197	-85.5936	57.9366	-186.541	-80.2922	89.5197	-201.724	-73.9461	57.7255	
252	2.1	-217.961	-36.8203	53.4642	-217.342	-35.677	15.7096	-199.95	-36.1843	-12.0912	-172.255	-40.5002	-23.6607	-169.199	-65.2512	-11.6551	-145.832	-40.8304	-17.702	-163.596	-23.4825	8.56873	-143.549	-67.5942	-5.19586	-131.379	-36.4221	-7.47881	-157.884	-26.5496	24.802	-128.317	-67.3431	10.7656	-119.219	-39.4995	8.32078	-141.868	-32.6328	36.7043	-116.025	-69.8862	33.5754	-115.94	-37.7854	25.8417	-139.218	-35.0034	46.5765	-169.365	-83.9588	60.6237	-187.401	-80.5738	89.3988	-204.835	-73.1409	57.2221	
253	2.10833	-222.341	-33.1893	52.0819	-217.102	-32.2726	18.8436	-200.911	-34.6068	-14.069	-172.495	-40.2038	-25.1933	-165.521	-65.6803	-11.8647	-148.449	-42.5396	-21.9093	-163.745	-21.8712	4.68816	-145.745	-67.1949	-6.43273	-131.582	-37.6622	-9.1843	-154.453	-26.9409	23.8054	-126.827	-67.5816	9.57507	-118.289	-39.7388	11.0318	-145.29	-35.9332	37.9155	-118.8	-71.6951	32.377	-115.359	-39.3017	26.284	-136.301	-32.9193	48.0594	-169.021	-86.7363	58.035	-186.43	-81.9263	87.2963	-206.678	-69.3503	54.0175	
254	2.11667	-217.084	-33.8152	48.8114	-216.94	-27.766	15.225	-199.823	-29.4136	-13.3295	-169.643	-39.2343	-23.4438	-170.58	-62.5288	-13.9766	-148.734	-39.9715	-22.0284	-165.235	-23.1548	7.7527	-148.533	-70.3809	-3.64101	-130.013	-38.8055	-8.1572	-156.435	-27.6187	25.7077	-130.592	-71.2336	9.96968	-120.775	-39.7569	9.847	-144.119	-37.2495	37.6371	-119.914	-75.1139	32.8877	-114.175	-44.7662	23.9654	-137.651	-36.3061	46.2278	-173.226	-85.9986	55.9226	-189.531	-78.7329	85.5733	-208.805	-67.1648	55.1527	
